<?xml version="1.0" encoding="iso-8859-1"?>
<!-- Generator: Adobe Illustrator 16.0.0, SVG Export Plug-In . SVG Version: 6.00 Build 0)  -->
<!DOCTYPE svg PUBLIC "-//W3C//DTD SVG 1.1//EN" "http://www.w3.org/Graphics/SVG/1.1/DTD/svg11.dtd">
<svg version="1.1" id="Capa_1" xmlns="http://www.w3.org/2000/svg" xmlns:xlink="http://www.w3.org/1999/xlink" x="0px" y="0px"
	 width="561.949px" height="561.949px" viewBox="0 0 561.949 561.949" style="enable-background:new 0 0 561.949 561.949;"
	 xml:space="preserve">
<g>
	<g>
		<path d="M417.168,0H144.781c-17.892,0-32.456,14.544-32.456,32.446v497.058c0,17.893,14.564,32.445,32.456,32.445h272.387
			c17.892,0,32.455-14.543,32.455-32.445V32.436C449.624,14.544,435.06,0,417.168,0z M435.28,529.504
			c0,9.984-8.128,18.102-18.111,18.102H144.781c-9.983,0-18.112-8.117-18.112-18.102V32.436c0-9.983,8.128-18.102,18.112-18.102
			h272.387c9.983,0,18.111,8.118,18.111,18.102V529.504z"/>
		<path d="M410.858,89.228H151.092c-1.979,0-3.586,1.607-3.586,3.586v358.05c0,1.979,1.606,3.586,3.586,3.586h259.766
			c1.979,0,3.586-1.607,3.586-3.586V92.813C414.444,90.834,412.837,89.228,410.858,89.228z M407.272,447.277H154.678V96.399h252.594
			V447.277z"/>
		<path d="M314.678,486.234h-67.406c-7.487,0-13.588,6.1-13.588,13.588s6.101,13.588,13.588,13.588h67.406
			c7.487,0,13.588-6.1,13.588-13.588C328.256,492.334,322.166,486.234,314.678,486.234z M314.678,506.238h-67.406
			c-3.538,0-6.417-2.877-6.417-6.416c0-3.537,2.878-6.416,6.417-6.416h67.406c3.538,0,6.416,2.879,6.416,6.416
			C321.084,503.361,318.216,506.238,314.678,506.238z"/>
		<path d="M253.067,51.112h55.807c4.887,0,8.854-3.969,8.854-8.855c0-4.887-3.968-8.855-8.854-8.855h-55.807
			c-4.887,0-8.855,3.968-8.855,8.855C244.212,47.143,248.18,51.112,253.067,51.112z M253.067,40.574h55.807
			c0.928,0,1.683,0.755,1.683,1.683c0,0.927-0.755,1.683-1.683,1.683h-55.807c-0.928,0-1.683-0.756-1.683-1.683
			C251.384,41.329,252.139,40.574,253.067,40.574z"/>
	</g>
</g>
<g>
</g>
<g>
</g>
<g>
</g>
<g>
</g>
<g>
</g>
<g>
</g>
<g>
</g>
<g>
</g>
<g>
</g>
<g>
</g>
<g>
</g>
<g>
</g>
<g>
</g>
<g>
</g>
<g>
</g>
</svg>
